<?xml version="1.0" encoding="utf-8"?>
<!-- Generator: Adobe Illustrator 16.0.0, SVG Export Plug-In . SVG Version: 6.00 Build 0)  -->
<!DOCTYPE svg PUBLIC "-//W3C//DTD SVG 1.1//EN" "http://www.w3.org/Graphics/SVG/1.1/DTD/svg11.dtd">
<svg version="1.1" id="Layer_1" xmlns="http://www.w3.org/2000/svg" xmlns:xlink="http://www.w3.org/1999/xlink" x="0px" y="0px"
	 width="100px" height="100px" viewBox="0 0 100 100" enable-background="new 0 0 100 100" xml:space="preserve">
<g>
	<path fill="#0088A2" d="M72.748,38.133H61.866v-10.88c0-6.541-5.325-11.862-11.871-11.862c-6.541,0-11.861,5.321-11.861,11.862
		v10.88H27.252c-6.541,0-11.861,5.321-11.861,11.862c0,6.546,5.321,11.872,11.861,11.872h10.881v10.87
		c0,6.546,5.321,11.872,11.861,11.872c6.546,0,11.871-5.326,11.871-11.872v-10.87h10.882c6.54,0,11.861-5.326,11.861-11.872
		C84.609,43.455,79.288,38.133,72.748,38.133z M72.748,60.877H61.371c-0.273,0-0.495,0.221-0.495,0.494v11.366
		c0,6-4.882,10.882-10.881,10.882c-5.994,0-10.871-4.882-10.871-10.882V61.371c0-0.273-0.222-0.494-0.495-0.494H27.252
		c-5.994,0-10.871-4.882-10.871-10.882c0-5.995,4.877-10.872,10.871-10.872h11.376c0.273,0,0.495-0.222,0.495-0.495V27.253
		c0-5.995,4.877-10.872,10.871-10.872c5.999,0,10.881,4.877,10.881,10.872v11.375c0,0.273,0.222,0.495,0.495,0.495h11.377
		c5.994,0,10.871,4.877,10.871,10.872C83.619,55.995,78.742,60.877,72.748,60.877z"/>
	<path fill="#0088A2" d="M50-0.001C22.43-0.001,0,22.43,0,50s22.43,50,50,50c27.57,0,50-22.43,50-50S77.57-0.001,50-0.001z
		 M98.787,49.995c0,26.904-21.889,48.792-48.792,48.792c-26.898,0-48.782-21.888-48.782-48.792
		c0-26.899,21.884-48.783,48.782-48.783C76.898,1.212,98.787,23.096,98.787,49.995z"/>
</g>
</svg>
