<?xml version="1.0" encoding="utf-8"?>
<!-- Generator: Adobe Illustrator 16.0.0, SVG Export Plug-In . SVG Version: 6.00 Build 0)  -->
<!DOCTYPE svg PUBLIC "-//W3C//DTD SVG 1.1//EN" "http://www.w3.org/Graphics/SVG/1.1/DTD/svg11.dtd">
<svg version="1.1" id="Layer_1" xmlns="http://www.w3.org/2000/svg" xmlns:xlink="http://www.w3.org/1999/xlink" x="0px" y="0px"
	 width="100px" height="100px" viewBox="0 0 100 100" enable-background="new 0 0 100 100" xml:space="preserve">
<g>
	<path fill="#FFFFFF" d="M50,0C22.43,0,0,22.43,0,50s22.43,50,50,50s50-22.43,50-50S77.57,0,50,0z M50,99.01
		C22.976,99.01,0.99,77.023,0.99,50S22.976,0.99,50,0.99S99.01,22.977,99.01,50S77.024,99.01,50,99.01z"/>
</g>
<path fill-rule="evenodd" clip-rule="evenodd" fill="#FFFFFF" d="M73.282,56.371c-0.537,1.935-1.318,3.766-2.293,5.471
	c0.144,0.179,5.273,6.628,2.121,9.779l-1.571,1.572c-2.362,2.36-8.278-1.341-9.689-2.281c-1.801,1.01-3.743,1.797-5.793,2.32
	l0.415,0.013c0,0-1.121,8.437-5.641,8.437h-1.551c-3.446,0-5.367-7.227-5.699-8.59c-2.026-0.57-3.944-1.398-5.715-2.446l0.311,0.33
	c0,0-6.679,5.252-9.875,2.055l-1.414-1.175c-2.429-2.43,1.486-8.865,2.27-10.093c-0.945-1.668-1.704-3.455-2.232-5.34
	c-1.327-0.321-8.604-2.243-8.604-5.702V49.17c0-3.991,6.939-5.33,8.564-5.59c0.52-1.9,1.275-3.7,2.218-5.381
	c-0.745-1.134-4.817-7.596-2.366-10.048l1.492-1.255c2.812-2.812,8.575,1.171,9.921,2.17c1.704-0.978,3.533-1.758,5.467-2.297
	c0.426-1.694,2.335-8.451,5.664-8.451h1.551c3.875,0,5.249,6.535,5.563,8.403c1.96,0.531,3.817,1.309,5.544,2.287
	c1.461-0.951,7.477-4.63,9.832-2.275l1.414,1.493c2.754,2.756-1.067,8.336-2.177,9.827c0.974,1.709,1.752,3.544,2.288,5.481
	c0.493,0.07,8.387,1.256,8.387,5.635v1.551C81.681,54.021,75.046,55.924,73.282,56.371 M50.009,32.187
	c-9.843,0-17.822,7.98-17.822,17.822c0,9.843,7.979,17.821,17.822,17.821c9.842,0,17.822-7.979,17.822-17.821
	C67.831,40.167,59.852,32.187,50.009,32.187 M50.009,61.89c-6.562,0-11.881-5.319-11.881-11.881c0-6.562,5.32-11.881,11.881-11.881
	c6.561,0,11.881,5.318,11.881,11.881C61.89,56.57,56.57,61.89,50.009,61.89 M50.009,44.068c-3.281,0-5.941,2.66-5.941,5.94
	c0,3.281,2.66,5.94,5.941,5.94s5.94-2.659,5.94-5.94C55.95,46.729,53.291,44.068,50.009,44.068"/>
</svg>
