<?xml version="1.0" encoding="utf-8"?>
<!-- Generator: Adobe Illustrator 16.0.0, SVG Export Plug-In . SVG Version: 6.00 Build 0)  -->
<!DOCTYPE svg PUBLIC "-//W3C//DTD SVG 1.1//EN" "http://www.w3.org/Graphics/SVG/1.1/DTD/svg11.dtd">
<svg version="1.1" id="Layer_1" xmlns="http://www.w3.org/2000/svg" xmlns:xlink="http://www.w3.org/1999/xlink" x="0px" y="0px"
	 width="100px" height="100px" viewBox="0 0 100 100" enable-background="new 0 0 100 100" xml:space="preserve">
<g>
	<path fill="#FFFFFF" d="M50,0C22.431,0,0,22.43,0,50s22.43,50,50,50s50-22.43,50-50S77.57,0,50,0z M50,99.01
		c-27.024,0-49.01-21.986-49.01-49.01S22.976,0.99,50,0.99C77.025,0.99,99.01,22.977,99.01,50S77.025,99.01,50,99.01z"/>
</g>
<path fill-rule="evenodd" clip-rule="evenodd" fill="#FFFFFF" d="M81.633,70.331c0,0.002,0.002,0.003,0.002,0.005
	c0,1.084-0.883,1.963-1.971,1.963H64.986c1.101-0.242,1.924-1.217,1.924-2.387c0-0.002,0-0.004,0-0.006h0.002
	c0,0,0-8.918-6.537-12.159c-2.795-1.386-2.98-1.122-4.367-1.45l0.037-3.863c0,0-1.525-1.163-2-4.812
	c-0.955,0.276-1.271-1.117-1.326-2.003c-0.052-0.856-0.553-3.532,0.611-3.29c-0.238-1.786-0.41-3.397-0.326-4.251
	c0.293-2.995,3.188-6.125,7.646-6.354c5.244,0.229,7.322,3.356,7.615,6.352c0.084,0.854-0.104,2.465-0.341,4.249
	c1.165-0.239,0.658,2.433,0.602,3.288c-0.052,0.887-0.374,2.275-1.327,2c-0.477,3.648-2.002,4.803-2.002,4.803l0.035,3.857
	c0,0,0.967,0.549,5.041,2.231c4.074,1.685,2.797,0.425,6.117,2.07c5.244,2.602,5.244,9.757,5.244,9.757H81.633z M52.076,57.136
	c4.479,1.852,3.074,0.466,6.723,2.276c5.766,2.858,5.766,10.724,5.766,10.724h-0.002c0,0.002,0.002,0.003,0.002,0.005
	c0,1.192-0.971,2.158-2.166,2.158H20.533c-1.196,0-2.166-0.966-2.166-2.158c0-0.002,0-0.003,0-0.005h-0.001
	c0,0,0-7.865,5.766-10.725c3.649-1.81,2.244-0.341,6.724-2.192c4.479-1.849,5.54-2.494,5.54-2.494l0.042-4.262
	c0,0-1.678-1.279-2.199-5.289c-1.049,0.303-1.396-1.228-1.458-2.201c-0.057-0.941-0.607-3.883,0.673-3.617
	c-0.262-1.964-0.451-3.733-0.358-4.671c0.321-3.293,3.502-6.733,8.404-6.983c5.765,0.25,8.048,3.688,8.369,6.979
	c0.094,0.938-0.112,2.71-0.375,4.671c1.281-0.262,0.725,2.674,0.663,3.615c-0.056,0.974-0.412,2.499-1.458,2.198
	c-0.523,4.009-2.202,5.277-2.202,5.277l0.04,4.241C46.536,54.684,47.597,55.286,52.076,57.136"/>
</svg>
