<?xml version="1.0" encoding="utf-8"?>
<!-- Generator: Adobe Illustrator 16.0.0, SVG Export Plug-In . SVG Version: 6.00 Build 0)  -->
<!DOCTYPE svg PUBLIC "-//W3C//DTD SVG 1.1//EN" "http://www.w3.org/Graphics/SVG/1.1/DTD/svg11.dtd">
<svg version="1.1" id="Layer_1" xmlns="http://www.w3.org/2000/svg" xmlns:xlink="http://www.w3.org/1999/xlink" x="0px" y="0px"
	 width="100px" height="100px" viewBox="0 0 100 100" enable-background="new 0 0 100 100" xml:space="preserve">
<g>
	<path fill="#0089A3" d="M50,0C22.425,0,0,22.436,0,50c0,27.574,22.425,50,50,50c27.574,0,50-22.426,50-50C100,22.436,77.574,0,50,0
		z M50,99.01C22.98,99.01,0.99,77.029,0.99,50C0.99,22.98,22.98,0.99,50,0.99S99.01,22.98,99.01,50
		C99.01,77.029,77.02,99.01,50,99.01z"/>
	<path fill="#0089A3" d="M34.34,27.471v9.963c-2.06-0.016-4.117-0.027-6.176,0.035c-5.246,0.16-8.915,3.951-8.922,9.22
		c-0.008,4.816-0.008,9.629,0,14.443c0.007,5.435,3.819,9.237,9.271,9.245l5.515,0.004h0.312v2.148c0,1.707,1.389,3.096,3.096,3.096
		h28.224v-51.25H37.436C35.729,24.375,34.34,25.764,34.34,27.471z M28.515,69.387c-4.87-0.007-8.275-3.402-8.282-8.257
		c-0.008-4.812-0.008-9.625,0-14.439c0.007-4.704,3.28-8.089,7.962-8.231c2.062-0.063,4.125-0.05,6.187-0.036v3.746h6.755v0.01
		l0.498-0.003c4.835-0.028,9.669-0.042,14.502-0.01c0.675,0.005,1.289,0.259,1.73,0.715c0.461,0.476,0.703,1.131,0.684,1.846
		c-0.034,1.372-1.07,2.295-2.577,2.297l-15.93,0.005l-0.199-0.005c-0.302-0.011-0.656-0.046-1.003,0.169
		c-0.396,0.249-0.704,0.789-0.702,1.225c0,0.495,0.529,0.922,0.865,1.075c0.35,0.156,0.611,0.11,0.852,0.095
		c0.072-0.005,0.145-0.01,0.216-0.01l12.27-0.009l3.573,0.002c1.437,0,2.517,0.92,2.627,2.236c0.061,0.741-0.138,1.389-0.576,1.873
		c-0.452,0.501-1.142,0.785-1.944,0.8c-0.749,0.016-1.5,0.021-2.252,0.021l-8.4-0.013c-1.872,0-3.746,0.003-5.619,0.016
		c-0.21,0.001-0.931,0.038-1.361,0.46c-0.291,0.287-0.392,0.711-0.269,1.134c0.135,0.468,0.516,0.833,0.97,0.932
		c0.221,0.049,0.435,0.055,0.614,0.055l11.973-0.012l4.32,0.003c1.399,0,2.447,0.901,2.547,2.194
		c0.058,0.75-0.147,1.404-0.594,1.889c-0.468,0.506-1.178,0.785-2.002,0.788c-2.094,0.006-4.188,0.008-6.282,0.008l-9.21-0.004
		c-0.296,0-0.591,0-0.881,0.005c-1.196,0.013-1.461,0.67-1.472,1.218c-0.009,0.392,0.101,0.706,0.324,0.935
		c0.332,0.34,0.811,0.38,1.161,0.38h0.001c2.005-0.011,4.015-0.011,6.022-0.011l7.478-0.009c0.982,0,1.966,0.002,2.948,0.01
		c1.105,0.008,2.019,0.632,2.383,1.629c0.312,0.846,0.19,2.009-0.643,2.591c-0.568,0.397-1.339,0.66-1.962,0.67
		c-2.268,0.033-4.537,0.042-6.807,0.042l-6.607-0.009v-0.011l-8.374,0.002L28.515,69.387z M64.669,74.635H37.436
		c-1.16,0-2.105-0.945-2.105-2.105v-2.148l6.081-0.002l7.598,0.02c2.274,0,4.549-0.009,6.822-0.042
		c0.819-0.013,1.782-0.338,2.514-0.849c1.115-0.78,1.528-2.319,1.005-3.743c-0.503-1.373-1.8-2.268-3.305-2.278
		c-0.985-0.008-1.971-0.01-2.956-0.01l-7.478,0.009c-2.01,0-4.021,0-6.041,0.011c-0.339,0-0.423-0.068-0.437-0.082
		c-0.022-0.022-0.044-0.092-0.041-0.222c0.003-0.161,0.005-0.243,0.496-0.249c0.284-0.004,0.571-0.004,0.859-0.004
		c0.002,0,0.005,0,0.007,0l9.21,0.003c2.095,0,4.19-0.001,6.285-0.007c1.103-0.003,2.07-0.396,2.726-1.107
		c0.63-0.683,0.933-1.619,0.853-2.636c-0.138-1.802-1.624-3.108-3.531-3.108l-4.321-0.003l-7.623,0.005l-4.35,0.008
		c-0.127,0-0.274-0.004-0.403-0.032c-0.112-0.025-0.2-0.141-0.23-0.241c-0.01-0.032-0.027-0.112,0.013-0.151
		c0.087-0.085,0.362-0.174,0.673-0.176c1.871-0.013,3.743-0.016,5.613-0.016l8.4,0.013c0.759,0,1.517-0.005,2.272-0.021
		c1.077-0.021,2.021-0.42,2.659-1.126c0.617-0.683,0.911-1.613,0.826-2.62c-0.151-1.821-1.671-3.143-3.612-3.143l-3.573-0.002
		l-12.27,0.008c-0.091,0-0.185,0.006-0.278,0.012c-0.187,0.013-0.365,0-0.381-0.009c-0.126-0.057-0.27-0.174-0.283-0.177
		c-0.001-0.089,0.13-0.314,0.236-0.381c0.008-0.005,0.056-0.026,0.229-0.026l0.45,0.013l15.931-0.006
		c2.051-0.002,3.518-1.343,3.565-3.26c0.026-0.982-0.314-1.892-0.962-2.561c-0.627-0.648-1.493-1.01-2.437-1.017
		c-4.668-0.031-9.343-0.02-14.016,0.007l-6.755-0.004V37.44H35.33v-9.97c0-1.16,0.945-2.105,2.105-2.105h27.233V74.635z"/>
	<path fill="#0089A3" d="M76.803,29.974c-1.115-0.034-2.23-0.044-3.345-0.046v-2.457c0-1.707-1.389-3.096-3.095-3.096h-3.096
		l0.013,6.287c-0.143,0.104-0.287,0.209-0.412,0.337c-0.629,0.64-0.956,1.506-0.944,2.504c0.015,1.131,0.519,2.04,1.345,2.621
		v39.501h3.095c1.706,0,3.095-1.389,3.095-3.096v-9.647l2.995-0.001c5.451-0.006,9.264-3.808,9.271-9.244
		c0.007-4.816,0.007-9.629,0-14.444C85.717,33.926,82.048,30.134,76.803,29.974z M68.26,25.365h2.104
		c1.161,0,2.104,0.945,2.104,2.105v2.461c-0.69,0.002-1.382,0.002-2.072,0.006l-0.792,0.006c-0.482,0.004-0.924,0.086-1.334,0.219
		L68.26,25.365z M72.468,72.529c0,1.16-0.943,2.105-2.104,2.105h-2.104V36.612c0.414,0.129,0.866,0.207,1.361,0.208l2.188,0.002
		c0.219,0,0.439,0,0.659-0.001v0.354h-0.009v25.708h0.009V72.529z M76.416,36.813l0.47,0.003c0.1,0,0.18,0.08,0.18,0.18
		c0,0.036-0.012,0.069-0.097,0.156l-3.511,0.018v-0.35C74.433,36.819,75.413,36.817,76.416,36.813z M84.733,53.635
		c-0.007,4.855-3.412,8.25-8.282,8.256l-2.993,0.002V38.165h3.429c0.071,0,0.145-0.008,0.268-0.032
		c0.027-0.006,0.053-0.014,0.079-0.021l0.104-0.037c0.207-0.085,0.38-0.225,0.485-0.384c0.152-0.205,0.232-0.444,0.232-0.694
		c0-0.645-0.525-1.17-1.252-1.171l-0.443-0.002c-1.518,0.006-3.035,0.009-4.552,0.009l-2.187-0.002
		c-1.626-0.003-2.689-0.922-2.708-2.34c-0.008-0.728,0.221-1.35,0.661-1.799c0.479-0.488,1.185-0.751,2.035-0.758l0.792-0.006
		c2.123-0.014,4.248-0.028,6.369,0.036c4.682,0.143,7.955,3.527,7.962,8.23C84.74,44.008,84.74,48.82,84.733,53.635z"/>
</g>
</svg>
