<?xml version="1.0" encoding="utf-8"?>
<!-- Generator: Adobe Illustrator 16.0.0, SVG Export Plug-In . SVG Version: 6.00 Build 0)  -->
<!DOCTYPE svg PUBLIC "-//W3C//DTD SVG 1.1//EN" "http://www.w3.org/Graphics/SVG/1.1/DTD/svg11.dtd">
<svg version="1.1" id="Layer_1" xmlns="http://www.w3.org/2000/svg" xmlns:xlink="http://www.w3.org/1999/xlink" x="0px" y="0px"
	 width="100px" height="100px" viewBox="0 0 100 100" enable-background="new 0 0 100 100" xml:space="preserve">
<g>
	<path fill="#0089A3" d="M50,100C22.43,100,0,77.57,0,50S22.43,0,50,0s50,22.43,50,50S77.57,100,50,100z M50,0.99
		C22.977,0.99,0.99,22.977,0.99,50S22.977,99.01,50,99.01S99.01,77.023,99.01,50S77.023,0.99,50,0.99z"/>
</g>
<g>
	<path fill="#0089A3" d="M75.062,42.714c-0.534-1.854-1.282-3.644-2.227-5.33c1.488-2.062,5.103-7.764,2.077-10.79l-1.505-1.583
		c-0.641-0.642-1.53-0.967-2.645-0.967c-2.824,0-6.465,2.083-8.138,3.146c-1.731-0.957-3.552-1.71-5.421-2.242
		c-0.458-2.479-2.07-9.003-6.324-9.003h-1.644c-3.589,0-5.635,6.115-6.409,9.047c-1.815,0.533-3.612,1.287-5.348,2.247
		c-1.343-0.966-4.838-3.252-7.805-3.252c-1.257,0-2.294,0.401-3.055,1.162l-1.616,1.358c-2.645,2.654,0.873,8.808,2.28,11.012
		c-0.911,1.667-1.638,3.43-2.162,5.247c-2.521,0.442-9.173,2.021-9.173,6.357v1.644c0,3.733,6.713,5.81,9.207,6.45
		c0.537,1.813,1.271,3.569,2.187,5.228c-1.145,1.838-4.88,8.347-2.144,11.09l1.468,1.205c0.823,0.825,1.897,1.244,3.192,1.244
		c0,0,0,0,0.001,0c3.271,0,7.003-2.679,7.779-3.265c1.61,0.888,3.336,1.605,5.146,2.137c0.641,2.493,2.714,9.197,6.45,9.197h1.644
		c4.826,0,6.229-7.832,6.434-9.178c1.809-0.521,3.559-1.242,5.218-2.146c1.646,1.066,5.224,3.151,8.013,3.151
		c1.097,0,1.978-0.324,2.616-0.962l1.664-1.663c3.283-3.275-0.976-9.388-2.006-10.759c0.962-1.716,1.716-3.511,2.242-5.342
		c2.916-0.772,8.987-2.812,8.987-6.389v-1.644C84.048,44.58,77.145,43.066,75.062,42.714z M83.058,50.767
		c0,2.45-4.399,4.448-8.519,5.501c-0.173,0.043-0.308,0.177-0.355,0.348c-0.535,1.95-1.339,3.86-2.387,5.676
		c-0.102,0.177-0.084,0.397,0.042,0.557c0.054,0.067,5.299,6.702,2.285,9.707l-1.664,1.664c-0.452,0.452-1.079,0.672-1.916,0.672
		c-2.746,0-6.602-2.411-7.717-3.151c-0.156-0.101-0.354-0.108-0.516-0.019c-1.897,1.062-3.923,1.871-6.02,2.407
		c-0.237,0.061-0.395,0.286-0.37,0.53c0.021,0.202,0.163,0.368,0.353,0.424c-0.334,1.847-1.717,7.98-5.395,7.98h-1.644
		c-2.518,0-4.568-4.697-5.559-8.721c-0.043-0.173-0.175-0.311-0.347-0.359c-2.11-0.596-4.106-1.451-5.93-2.542
		c-0.079-0.047-0.167-0.07-0.254-0.07c-0.145,0-0.286,0.063-0.384,0.182c-0.142,0.174-0.147,0.417-0.022,0.596
		c-1.124,0.801-4.254,2.846-6.882,2.846c-1.036,0-1.852-0.312-2.527-0.985l-1.468-1.205c-1.916-1.924,0.651-7.238,2.472-10.076
		c0.1-0.155,0.104-0.352,0.014-0.512c-0.992-1.748-1.772-3.614-2.32-5.544c-0.049-0.172-0.186-0.303-0.358-0.346
		c-4.028-0.992-8.731-3.043-8.731-5.559v-1.644c0-3.845,7.208-5.2,8.652-5.433c0.191-0.03,0.347-0.171,0.399-0.357
		c0.535-1.944,1.309-3.825,2.301-5.591c0.09-0.162,0.083-0.359-0.018-0.514c-2.293-3.512-4.342-8.244-2.602-9.993l1.616-1.356
		c0.606-0.607,1.388-0.902,2.386-0.902c2.881,0,6.449,2.484,7.475,3.246c0.157,0.118,0.369,0.131,0.539,0.033
		c1.839-1.045,3.751-1.848,5.681-2.39c0.17-0.047,0.303-0.183,0.346-0.354c1.058-4.146,3.062-8.577,5.521-8.577h1.644
		c3.671,0,5.063,6.497,5.403,8.489c0.032,0.19,0.172,0.344,0.358,0.395c1.99,0.54,3.927,1.341,5.756,2.378
		c0.161,0.092,0.358,0.085,0.515-0.016c1.137-0.737,5.063-3.146,7.851-3.146c0.854,0,1.489,0.221,1.937,0.668l1.504,1.583
		c2.681,2.681-1.491,8.608-2.354,9.77c-0.118,0.158-0.13,0.372-0.031,0.543c1.031,1.787,1.831,3.7,2.376,5.687
		c0.053,0.188,0.216,0.329,0.409,0.358c0.865,0.131,8.455,1.395,8.455,5.48V50.767z"/>
	<path fill="#0089A3" d="M50.009,30.638c-10.685,0-19.377,8.691-19.377,19.376c0,10.68,8.692,19.367,19.377,19.367
		s19.376-8.688,19.376-19.367C69.385,39.329,60.693,30.638,50.009,30.638z M50.009,62.103c-6.666,0-12.089-5.423-12.089-12.089
		c0-6.672,5.423-12.099,12.089-12.099s12.089,5.427,12.089,12.099C62.098,56.68,56.675,62.103,50.009,62.103z"/>
	<path fill="#0089A3" d="M50.009,43.222c-3.746,0-6.793,3.047-6.793,6.792c0,3.74,3.047,6.782,6.793,6.782
		c3.74,0,6.781-3.042,6.781-6.782C56.79,46.269,53.749,43.222,50.009,43.222z M50.009,55.807c-3.199,0-5.803-2.6-5.803-5.793
		c0-3.198,2.604-5.802,5.803-5.802c3.193,0,5.792,2.604,5.792,5.802C55.801,53.207,53.202,55.807,50.009,55.807z"/>
</g>
</svg>
