<?xml version="1.0" encoding="utf-8"?>
<!-- Generator: Adobe Illustrator 16.0.0, SVG Export Plug-In . SVG Version: 6.00 Build 0)  -->
<!DOCTYPE svg PUBLIC "-//W3C//DTD SVG 1.1//EN" "http://www.w3.org/Graphics/SVG/1.1/DTD/svg11.dtd">
<svg version="1.1" id="Layer_1" xmlns="http://www.w3.org/2000/svg" xmlns:xlink="http://www.w3.org/1999/xlink" x="0px" y="0px"
	 width="100px" height="100px" viewBox="0 0 100 100" enable-background="new 0 0 100 100" xml:space="preserve">
<g>
	<path fill="#FFFFFF" d="M50,0C22.43,0,0,22.43,0,50c0,27.57,22.43,50,50,50c27.57,0,50-22.43,50-50C100,22.43,77.57,0,50,0z
		 M50,99.01C22.976,99.01,0.99,77.023,0.99,50C0.99,22.976,22.976,0.99,50,0.99S99.01,22.976,99.01,50
		C99.01,77.023,77.024,99.01,50,99.01z"/>
</g>
<path fill-rule="evenodd" clip-rule="evenodd" fill="#FFFFFF" d="M78.713,52.971H39.109c-1.64,0-2.97-1.329-2.97-2.971
	c0-1.64,1.331-2.97,2.97-2.97h0.002h39.602c1.642,0,2.971,1.331,2.971,2.97C81.684,51.642,80.354,52.971,78.713,52.971
	 M78.713,37.129H39.109c-1.64,0-2.97-1.329-2.97-2.971c0-1.64,1.331-2.97,2.97-2.97h0.002h39.602c1.642,0,2.971,1.332,2.971,2.97
	C81.684,35.8,80.354,37.129,78.713,37.129 M27.228,68.812L27.228,68.812h-5.94c-1.64,0-2.97-1.328-2.97-2.97
	c0-1.64,1.331-2.971,2.97-2.971h5.94l0,0c1.642,0,2.971,1.331,2.971,2.971C30.198,67.483,28.87,68.812,27.228,68.812 M27.228,52.971
	L27.228,52.971h-5.94c-1.64,0-2.97-1.329-2.97-2.971c0-1.64,1.331-2.97,2.97-2.97h5.938h0.002c1.642,0,2.971,1.331,2.971,2.97
	C30.198,51.642,28.87,52.971,27.228,52.971 M27.228,37.129L27.228,37.129h-5.94c-1.64,0-2.97-1.329-2.97-2.971
	c0-1.639,1.331-2.97,2.97-2.97h5.94l0,0c1.642,0,2.971,1.331,2.971,2.97C30.198,35.8,28.87,37.129,27.228,37.129 M39.109,68.812
	c-1.64,0-2.97-1.328-2.97-2.97c0-1.64,1.331-2.971,2.97-2.971h0.002h39.602c1.642,0,2.971,1.331,2.971,2.971
	c0,1.642-1.329,2.97-2.971,2.97H39.109z"/>
</svg>
