<?xml version="1.0" encoding="utf-8"?>
<!-- Generator: Adobe Illustrator 16.0.0, SVG Export Plug-In . SVG Version: 6.00 Build 0)  -->
<!DOCTYPE svg PUBLIC "-//W3C//DTD SVG 1.1//EN" "http://www.w3.org/Graphics/SVG/1.1/DTD/svg11.dtd">
<svg version="1.1" id="Layer_1" xmlns="http://www.w3.org/2000/svg" xmlns:xlink="http://www.w3.org/1999/xlink" x="0px" y="0px"
	 width="100.557px" height="38.027px" viewBox="0 0 100.557 38.027" enable-background="new 0 0 100.557 38.027"
	 xml:space="preserve">
<path fill="#FFFFFF" d="M1.001,5.021c0,2.79,1.274,4.121,3.463,4.121c2.19,0,3.463-1.331,3.463-4.121
	c0-2.804-1.272-4.135-3.463-4.135C2.275,0.887,1.001,2.218,1.001,5.021 M0,5.021C0,1.63,1.688-0.001,4.464-0.001
	c2.776,0,4.466,1.631,4.466,5.022c0,3.363-1.689,5.009-4.466,5.009C1.688,10.031,0,8.385,0,5.021"/>
<path fill="#FFFFFF" d="M12.28,1.115c-0.259,0-0.458-0.201-0.458-0.458s0.199-0.458,0.458-0.458h6.081
	c0.257,0,0.458,0.201,0.458,0.458s-0.201,0.458-0.458,0.458h-2.547v8.342c0,0.273-0.215,0.486-0.486,0.486s-0.486-0.213-0.486-0.486
	V1.115H12.28z"/>
<path fill="#FFFFFF" d="M27.708,2.289l-2.062,7.284c-0.058,0.229-0.243,0.371-0.473,0.371c-0.213,0-0.414-0.142-0.474-0.357
	l-2.531-8.844c-0.016-0.057-0.029-0.114-0.029-0.17c0-0.274,0.215-0.488,0.486-0.488c0.273,0,0.43,0.2,0.473,0.358l2.09,7.398
	l2.047-7.398c0.057-0.229,0.257-0.358,0.473-0.358c0.213,0,0.412,0.129,0.472,0.358l2.046,7.398l2.089-7.398
	c0.043-0.158,0.201-0.358,0.473-0.358s0.486,0.214,0.486,0.488c0,0.056-0.014,0.113-0.028,0.17l-2.532,8.844
	c-0.06,0.215-0.259,0.357-0.473,0.357c-0.229,0-0.416-0.142-0.472-0.371L27.708,2.289z"/>
<path fill="#FFFFFF" d="M39.644,1.717l-1.688,4.379h3.392L39.644,1.717z M37.653,6.983l-1.044,2.618
	c-0.069,0.186-0.228,0.342-0.472,0.342c-0.271,0-0.486-0.227-0.486-0.486c0-0.057,0.015-0.156,0.043-0.215l3.491-8.828
	c0.071-0.172,0.2-0.33,0.458-0.33c0.243,0,0.401,0.158,0.473,0.33l3.49,8.828c0.03,0.073,0.044,0.173,0.044,0.215
	c0,0.259-0.199,0.486-0.502,0.486c-0.243,0-0.398-0.142-0.472-0.328l-1.03-2.632H37.653z"/>
<path fill="#FFFFFF" d="M48.419,4.778h2.391c1.001,0,1.716-0.816,1.716-1.845c0-1.06-0.729-1.846-1.759-1.846h-2.348V4.778z
	 M48.419,9.457c0,0.273-0.216,0.486-0.486,0.486c-0.272,0-0.487-0.213-0.487-0.486V0.686c0-0.272,0.215-0.487,0.487-0.487h2.848
	c1.587,0,2.734,1.202,2.734,2.734c0,1.473-1.019,2.662-2.563,2.733l2.619,3.491c0.071,0.085,0.101,0.201,0.101,0.3
	c0,0.273-0.216,0.486-0.486,0.486c-0.145,0-0.3-0.057-0.416-0.227l-2.904-4.05h-1.445V9.457z"/>
<path fill="#FFFFFF" d="M57.135,1.115c-0.259,0-0.458-0.201-0.458-0.458s0.199-0.458,0.458-0.458h6.081
	c0.257,0,0.458,0.201,0.458,0.458s-0.201,0.458-0.458,0.458h-2.547v8.342c0,0.273-0.215,0.486-0.486,0.486s-0.487-0.213-0.487-0.486
	V1.115H57.135z"/>
<path fill="#FFFFFF" d="M69.628,1.717L67.94,6.096h3.391L69.628,1.717z M67.639,6.983l-1.044,2.618
	c-0.071,0.186-0.229,0.342-0.473,0.342c-0.271,0-0.485-0.227-0.485-0.486c0-0.057,0.014-0.156,0.043-0.215l3.49-8.828
	c0.071-0.172,0.2-0.33,0.458-0.33c0.243,0,0.401,0.158,0.473,0.33l3.49,8.828c0.03,0.073,0.045,0.173,0.045,0.215
	c0,0.259-0.2,0.486-0.502,0.486c-0.243,0-0.399-0.142-0.473-0.328l-1.029-2.632H67.639z"/>
<path fill="#FFFFFF" d="M1.487,18.906h2.219c1.159,0,1.889-0.673,1.889-1.919c0-1.258-0.744-1.902-1.889-1.902H1.487V18.906z
	 M1.487,23.456c0,0.273-0.215,0.488-0.485,0.488c-0.272,0-0.486-0.215-0.486-0.488v-8.771c0-0.272,0.214-0.487,0.486-0.487H3.85
	c1.53,0,2.733,0.888,2.733,2.79c0,1.875-1.175,2.805-2.733,2.805H1.487V23.456z"/>
<path fill="#FFFFFF" d="M15.368,22.912c0.26,0,0.458,0.201,0.458,0.458c0,0.257-0.198,0.458-0.458,0.458h-4.406
	c-0.272,0-0.486-0.215-0.486-0.486V14.57c0-0.273,0.214-0.488,0.486-0.488c0.271,0,0.485,0.215,0.485,0.488v8.342H15.368z"/>
<path fill="#FFFFFF" d="M23.214,15.715l-1.688,4.378h3.391L23.214,15.715z M21.224,20.981l-1.044,2.618
	c-0.071,0.186-0.229,0.344-0.472,0.344c-0.271,0-0.486-0.23-0.486-0.488c0-0.057,0.015-0.156,0.043-0.215l3.491-8.828
	c0.071-0.172,0.2-0.33,0.458-0.33c0.243,0,0.401,0.158,0.472,0.33l3.491,8.828c0.03,0.073,0.044,0.173,0.044,0.215
	c0,0.258-0.2,0.488-0.502,0.488c-0.243,0-0.398-0.143-0.472-0.33l-1.029-2.632H21.224z"/>
<path fill="#FFFFFF" d="M29.642,15.113c-0.259,0-0.458-0.201-0.458-0.458c0-0.257,0.199-0.458,0.458-0.458h6.081
	c0.257,0,0.458,0.201,0.458,0.458c0,0.257-0.201,0.458-0.458,0.458h-2.547v8.342c0,0.273-0.215,0.488-0.485,0.488
	c-0.272,0-0.487-0.215-0.487-0.488v-8.342H29.642z"/>
<path fill="#FFFFFF" d="M40.918,23.456c0,0.273-0.215,0.488-0.486,0.488c-0.272,0-0.487-0.215-0.487-0.488v-8.771
	c0-0.272,0.215-0.487,0.487-0.487h4.593c0.243,0,0.444,0.201,0.444,0.444c0,0.243-0.201,0.444-0.444,0.444h-4.106v3.562h3.148
	c0.243,0,0.443,0.2,0.443,0.444c0,0.243-0.2,0.443-0.443,0.443h-3.148V23.456z"/>
<path fill="#FFFFFF" d="M49.72,19.02c0,2.79,1.273,4.121,3.463,4.121s3.463-1.331,3.463-4.121c0-2.804-1.273-4.135-3.463-4.135
	S49.72,16.216,49.72,19.02 M48.718,19.02c0-3.392,1.688-5.023,4.465-5.023c2.775,0,4.465,1.631,4.465,5.023
	c0,3.363-1.689,5.009-4.465,5.009C50.406,24.029,48.718,22.383,48.718,19.02"/>
<path fill="#FFFFFF" d="M62.743,18.776h2.391c1.001,0,1.717-0.816,1.717-1.845c0-1.06-0.729-1.846-1.762-1.846h-2.346V18.776z
	 M62.743,23.456c0,0.273-0.215,0.488-0.486,0.488s-0.486-0.215-0.486-0.488v-8.771c0-0.272,0.215-0.487,0.486-0.487h2.849
	c1.589,0,2.731,1.202,2.731,2.734c0,1.473-1.015,2.66-2.561,2.733l2.619,3.491c0.071,0.085,0.1,0.201,0.1,0.3
	c0,0.273-0.215,0.488-0.486,0.488c-0.144,0-0.3-0.058-0.416-0.231l-2.902-4.048h-1.447V23.456z"/>
<path fill="#FFFFFF" d="M75.769,21.996l-2.99-5.566v7.039c0,0.259-0.215,0.474-0.474,0.474c-0.258,0-0.473-0.215-0.473-0.474v-8.915
	c0-0.257,0.215-0.472,0.473-0.472c0.214,0,0.358,0.13,0.429,0.273l3.464,6.482l3.478-6.482c0.057-0.101,0.171-0.273,0.43-0.273
	c0.258,0,0.473,0.215,0.473,0.472v8.915c0,0.259-0.215,0.474-0.473,0.474c-0.259,0-0.474-0.215-0.474-0.474V16.43l-3.005,5.566
	c-0.099,0.187-0.257,0.272-0.429,0.272C76.055,22.269,75.868,22.197,75.769,21.996"/>
<path fill="#FFFFFF" d="M88.363,15.715l-1.688,4.378h3.391L88.363,15.715z M86.374,20.981l-1.044,2.618
	c-0.071,0.186-0.229,0.344-0.473,0.344c-0.271,0-0.485-0.23-0.485-0.488c0-0.057,0.014-0.156,0.043-0.215l3.49-8.828
	c0.071-0.172,0.2-0.33,0.458-0.33c0.243,0,0.401,0.158,0.473,0.33l3.491,8.828c0.029,0.073,0.044,0.173,0.044,0.215
	c0,0.258-0.2,0.488-0.502,0.488c-0.243,0-0.399-0.143-0.473-0.33l-1.03-2.632H86.374z"/>
<path fill="#FFFFFF" d="M1.001,37.827c-0.271,0-0.485-0.215-0.485-0.486v-8.658c0-0.272,0.214-0.486,0.485-0.486h4.593
	c0.243,0,0.444,0.2,0.444,0.443c0,0.243-0.201,0.444-0.444,0.444H1.487v3.449h3.148c0.243,0,0.444,0.2,0.444,0.443
	c0,0.243-0.201,0.444-0.444,0.444H1.487v3.52h4.265c0.243,0,0.444,0.2,0.444,0.443c0,0.243-0.201,0.444-0.444,0.444H1.001z"/>
<path fill="#FFFFFF" d="M11.062,36.939h1.532c2.132,0,3.434-0.944,3.434-3.921c0-2.948-1.302-3.935-3.434-3.935h-1.532V36.939z
	 M12.595,28.196c2.732,0,4.421,1.288,4.421,4.822c0,3.534-1.688,4.808-4.421,4.808h-2.018c-0.272,0-0.486-0.214-0.486-0.486v-8.658
	c0-0.271,0.214-0.486,0.486-0.486H12.595z"/>
<path fill="#FFFFFF" d="M21.11,34.893v-6.324c0-0.273,0.215-0.488,0.486-0.488s0.486,0.215,0.486,0.488v6.324
	c0,1.131,0.415,2.219,2.391,2.219c1.96,0,2.375-1.088,2.375-2.219v-6.324c0-0.273,0.215-0.488,0.485-0.488
	c0.272,0,0.487,0.215,0.487,0.488v6.324c0,1.574-0.643,3.134-3.348,3.134S21.11,36.467,21.11,34.893"/>
<path fill="#FFFFFF" d="M37.481,28.267c0.115-0.142,0.259-0.186,0.387-0.186c0.272,0,0.501,0.229,0.501,0.502
	c0,0.142-0.057,0.243-0.142,0.343l-2.991,3.349l3.463,4.879c0.057,0.085,0.1,0.172,0.1,0.3c0,0.273-0.215,0.486-0.486,0.486
	c-0.215,0-0.343-0.128-0.416-0.227l-3.319-4.723l-1.26,1.416v3.048c0,0.273-0.215,0.486-0.485,0.486
	c-0.272,0-0.486-0.213-0.486-0.486v-8.885c0-0.274,0.214-0.488,0.486-0.488c0.271,0,0.485,0.214,0.485,0.488v4.464L37.481,28.267z"
	/>
<path fill="#FFFFFF" d="M46.142,29.714l-1.688,4.379h3.393L46.142,29.714z M44.151,34.979l-1.044,2.618
	c-0.07,0.186-0.229,0.342-0.472,0.342c-0.271,0-0.486-0.227-0.486-0.486c0-0.057,0.014-0.156,0.043-0.215l3.491-8.828
	c0.071-0.172,0.2-0.33,0.458-0.33c0.243,0,0.401,0.158,0.472,0.33l3.491,8.828c0.03,0.073,0.044,0.173,0.044,0.215
	c0,0.259-0.2,0.486-0.502,0.486c-0.243,0-0.399-0.142-0.472-0.328l-1.029-2.632H44.151z"/>
<path fill="#FFFFFF" d="M53.198,33.019c0-3.392,1.688-5.023,4.464-5.023c1.359,0,2.547,0.587,3.219,1.518
	c0.073,0.099,0.102,0.2,0.102,0.3c0,0.257-0.2,0.458-0.457,0.458c-0.13,0-0.259-0.043-0.373-0.187
	c-0.486-0.673-1.416-1.201-2.49-1.201c-2.203,0-3.463,1.331-3.463,4.135c0,2.976,1.26,4.121,3.463,4.121
	c0.944,0,1.932-0.372,2.49-1.173c0.101-0.144,0.257-0.186,0.373-0.186c0.257,0,0.457,0.2,0.457,0.458
	c0,0.115-0.028,0.186-0.086,0.271c-0.63,0.916-1.917,1.518-3.234,1.518C54.886,38.027,53.198,36.539,53.198,33.019"/>
<path fill="#FFFFFF" d="M67.181,37.454v-4.107l-2.875-4.521c-0.044-0.072-0.073-0.158-0.073-0.257c0-0.273,0.215-0.488,0.486-0.488
	c0.173,0,0.331,0.087,0.416,0.229l2.531,4.064l2.533-4.064c0.087-0.142,0.243-0.229,0.415-0.229c0.272,0,0.487,0.215,0.487,0.488
	c0,0.099-0.029,0.185-0.071,0.257l-2.877,4.521v4.107c0,0.273-0.215,0.486-0.487,0.486C67.396,37.94,67.181,37.727,67.181,37.454"/>
<path fill="#FFFFFF" d="M72.963,37.255c0-0.259,0.215-0.474,0.472-0.474c0.115,0,0.158,0.03,0.286,0.087
	c0.345,0.172,0.673,0.229,1.061,0.229c1.258,0,1.746-0.916,1.746-2.176v-6.352c0-0.259,0.213-0.488,0.485-0.488
	S77.5,28.31,77.5,28.569v6.352c0,1.747-0.73,3.092-2.719,3.092c-0.544,0-1.175-0.116-1.546-0.33
	C73.062,37.583,72.963,37.44,72.963,37.255"/>
<path fill="#FFFFFF" d="M88.848,28.555v8.899c0,0.274-0.215,0.487-0.485,0.487c-0.172,0-0.301-0.072-0.401-0.199l-5.037-7.6v7.326
	c0,0.26-0.213,0.473-0.473,0.473c-0.258,0-0.473-0.213-0.473-0.473v-8.913c0-0.259,0.215-0.474,0.473-0.474
	c0.173,0,0.315,0.101,0.387,0.201l5.065,7.614v-7.341c0-0.259,0.216-0.474,0.473-0.474S88.848,28.295,88.848,28.555"/>
<path fill="#FFFFFF" d="M96.55,29.714l-1.688,4.379h3.392L96.55,29.714z M94.56,34.979l-1.044,2.618
	c-0.071,0.186-0.229,0.342-0.473,0.342c-0.271,0-0.485-0.227-0.485-0.486c0-0.057,0.014-0.156,0.043-0.215l3.491-8.828
	c0.07-0.172,0.199-0.33,0.458-0.33c0.242,0,0.4,0.158,0.472,0.33l3.491,8.828c0.029,0.073,0.044,0.173,0.044,0.215
	c0,0.259-0.2,0.486-0.502,0.486c-0.243,0-0.399-0.142-0.473-0.328l-1.029-2.632H94.56z"/>
</svg>
