<?xml version="1.0" encoding="utf-8"?>
<!-- Generator: Adobe Illustrator 16.0.0, SVG Export Plug-In . SVG Version: 6.00 Build 0)  -->
<!DOCTYPE svg PUBLIC "-//W3C//DTD SVG 1.1//EN" "http://www.w3.org/Graphics/SVG/1.1/DTD/svg11.dtd">
<svg version="1.1" id="Layer_1_copy" xmlns="http://www.w3.org/2000/svg" xmlns:xlink="http://www.w3.org/1999/xlink" x="0px"
	 y="0px" width="100px" height="100px" viewBox="0 0 100 100" enable-background="new 0 0 100 100" xml:space="preserve">
<g>
	<polygon fill="#FFFFFF" points="19.574,59.007 19.574,59.253 19.574,59.804 19.574,61.812 19.574,62.06 19.574,83.466 
		47.87,67.132 76.123,83.444 76.123,62.083 76.163,62.06 76.163,61.812 76.163,59.253 76.163,59.007 47.87,42.673 	"/>
	<path fill="#FFFFFF" d="M98.632,52.659c-1.027-2.016-2.503-3.76-4.24-5.319l1.402-0.809v-0.418v-4.336V41.36L47.87,13.691
		L-0.059,41.36v0.417v4.336v0.418l15.292,8.827L47.87,36.514l32.637,18.844l7.95-4.592c1.139,0.848,2.245,1.734,3.275,2.732
		c4.361,4.229,1.679,8.176-1.714,11.973c-1.988,2.217-3.61,4.449-4.62,7.051c-1.393,0.99-2.311,2.605-2.311,4.443
		c0,3.02,2.443,5.467,5.465,5.467s5.467-2.447,5.467-5.467c0-1.699-0.794-3.197-2.011-4.203
		C95.719,66.167,103.185,61.575,98.632,52.659z"/>
</g>
</svg>
