<?xml version="1.0" encoding="utf-8"?>
<!-- Generator: Adobe Illustrator 16.0.0, SVG Export Plug-In . SVG Version: 6.00 Build 0)  -->
<!DOCTYPE svg PUBLIC "-//W3C//DTD SVG 1.1//EN" "http://www.w3.org/Graphics/SVG/1.1/DTD/svg11.dtd">
<svg version="1.1" id="Layer_1" xmlns="http://www.w3.org/2000/svg" xmlns:xlink="http://www.w3.org/1999/xlink" x="0px" y="0px"
	 width="100px" height="100px" viewBox="0 0 100 100" enable-background="new 0 0 100 100" xml:space="preserve">
<g>
	<path fill="#0089A3" d="M42.079,23.762c-10.1,0-18.317,8.217-18.317,18.317c0,10.101,8.217,18.318,18.317,18.318
		c10.101,0,18.317-8.217,18.317-18.318C60.396,31.979,52.18,23.762,42.079,23.762z M42.079,59.406
		c-9.554,0-17.327-7.774-17.327-17.328c0-9.554,7.773-17.327,17.327-17.327s17.327,7.773,17.327,17.327
		C59.406,51.632,51.633,59.406,42.079,59.406z"/>
	<path fill="#0089A3" d="M63.151,54.052c2.085-3.661,3.186-7.792,3.186-11.973c0-13.376-10.882-24.257-24.258-24.257
		c-13.375,0-24.257,10.881-24.257,24.257c0,13.376,10.882,24.258,24.257,24.258c4.183,0,8.313-1.101,11.973-3.186l17.14,17.142
		c1.217,1.216,2.832,1.885,4.551,1.885c3.549,0,6.436-2.887,6.436-6.436c0-1.719-0.669-3.333-1.884-4.55L63.151,54.052z
		 M75.742,81.188c-1.454,0-2.821-0.567-3.851-1.596L54.21,61.91l-0.331,0.195c-3.586,2.119-7.667,3.241-11.8,3.241
		c-12.83,0-23.267-10.438-23.267-23.268S29.25,18.812,42.079,18.812c12.83,0,23.268,10.438,23.268,23.267
		c0,4.132-1.12,8.211-3.24,11.802l-0.194,0.329l17.682,17.683c1.027,1.028,1.595,2.396,1.595,3.85
		C81.188,78.744,78.746,81.188,75.742,81.188z"/>
	<path fill="#0089A3" d="M50,0C22.43,0,0,22.43,0,50s22.43,50,50,50c27.57,0,50-22.43,50-50S77.57,0,50,0z M50,99.01
		C22.976,99.01,0.99,77.024,0.99,50S22.976,0.99,50,0.99S99.01,22.976,99.01,50S77.024,99.01,50,99.01z"/>
</g>
</svg>
