<?xml version="1.0" encoding="utf-8"?>
<!-- Generator: Adobe Illustrator 16.0.0, SVG Export Plug-In . SVG Version: 6.00 Build 0)  -->
<!DOCTYPE svg PUBLIC "-//W3C//DTD SVG 1.1//EN" "http://www.w3.org/Graphics/SVG/1.1/DTD/svg11.dtd">
<svg version="1.1" id="Layer_3" xmlns="http://www.w3.org/2000/svg" xmlns:xlink="http://www.w3.org/1999/xlink" x="0px" y="0px"
	 width="100px" height="100px" viewBox="0 0 100 100" enable-background="new 0 0 100 100" xml:space="preserve">
<g>
	<path fill-rule="evenodd" clip-rule="evenodd" fill="#FFFFFF" d="M49.999,0C22.43,0,0,22.43,0,49.999
		C0,77.569,22.43,100,49.999,100C77.569,100,100,77.569,100,49.999C100,22.43,77.569,0,49.999,0z M49.999,99.005
		c-27.021,0-49.005-21.984-49.005-49.006S22.978,0.994,49.999,0.994s49.006,21.983,49.006,49.005S77.021,99.005,49.999,99.005z"/>
</g>
<path fill-rule="evenodd" clip-rule="evenodd" fill="#FFFFFF" d="M51.705,74.12c-2.282,0-4.51-0.659-6.666-0.969
	c-8.717,11.018-22.462,8.851-22.462,8.851c9.708-4.596,9.512-12.207,7.785-13.221c-7.62-4.478-12.203-11.297-12.203-18.934
	c0-13.487,14.822-24.421,33.546-24.421c18.723,0,30.134,10.934,30.134,24.421S70.428,74.12,51.705,74.12 M35.103,44.355
	c-3.295,0-5.966,2.671-5.966,5.966c0,3.296,2.671,5.966,5.966,5.966c3.296,0,5.966-2.67,5.966-5.966
	C41.068,47.026,38.398,44.355,35.103,44.355 M50.018,44.355c-3.296,0-5.966,2.671-5.966,5.966c0,3.296,2.67,5.966,5.966,5.966
	s5.966-2.67,5.966-5.966C55.983,47.026,53.313,44.355,50.018,44.355 M64.932,44.355c-3.295,0-5.966,2.671-5.966,5.966
	c0,3.296,2.671,5.966,5.966,5.966c3.296,0,5.966-2.67,5.966-5.966C70.897,47.026,68.228,44.355,64.932,44.355"/>
</svg>
