<?xml version="1.0" encoding="utf-8"?>
<!-- Generator: Adobe Illustrator 16.0.0, SVG Export Plug-In . SVG Version: 6.00 Build 0)  -->
<!DOCTYPE svg PUBLIC "-//W3C//DTD SVG 1.1//EN" "http://www.w3.org/Graphics/SVG/1.1/DTD/svg11.dtd">
<svg version="1.1" id="Layer_1" xmlns="http://www.w3.org/2000/svg" xmlns:xlink="http://www.w3.org/1999/xlink" x="0px" y="0px"
	 width="100px" height="100px" viewBox="0 0 100 100" enable-background="new 0 0 100 100" xml:space="preserve">
<g>
	<path fill="#FFFFFF" d="M27.167,44.77h45.669c0.639,0,1.209-0.402,1.424-1.004c0.215-0.603,0.028-1.274-0.467-1.679L50.958,23.41
		c-0.556-0.456-1.358-0.456-1.915,0L26.208,42.087c-0.495,0.404-0.682,1.076-0.467,1.679C25.956,44.367,26.527,44.77,27.167,44.77z"
		/>
	<path fill="#FFFFFF" d="M33.334,46.705h-3.481c-0.736,0-1.365,0.529-1.49,1.255c-1.269,7.335-1.408,9.626,0.003,17.233
		c0.133,0.716,0.758,1.236,1.487,1.236h3.481c0.729,0,1.354-0.521,1.488-1.236c1.411-7.607,1.272-9.898,0.003-17.233
		C34.699,47.234,34.07,46.705,33.334,46.705z"/>
	<path fill="#FFFFFF" d="M51.742,46.705H48.26c-0.736,0-1.365,0.529-1.491,1.255c-1.269,7.335-1.408,9.626,0.003,17.233
		c0.133,0.716,0.759,1.236,1.488,1.236h3.482c0.729,0,1.354-0.521,1.486-1.236c1.412-7.607,1.272-9.898,0.004-17.233
		C53.106,47.234,52.478,46.705,51.742,46.705z"/>
	<path fill="#FFFFFF" d="M70.016,46.705h-3.482c-0.736,0-1.365,0.529-1.49,1.255c-1.269,7.335-1.408,9.626,0.004,17.233
		c0.133,0.716,0.758,1.236,1.486,1.236h3.482c0.729,0,1.354-0.521,1.486-1.236c1.412-7.607,1.273-9.897,0.004-17.233
		C71.381,47.234,70.752,46.705,70.016,46.705z"/>
	<path fill="#FFFFFF" d="M27.167,71.345h45.669c0.832,0,1.512-0.681,1.512-1.512V69.14c0-0.832-0.68-1.513-1.512-1.513H27.167
		c-0.832,0-1.513,0.681-1.513,1.513v0.693C25.654,70.664,26.334,71.345,27.167,71.345z"/>
	<path fill="#FFFFFF" d="M76.186,72.49H23.816c-0.832,0-1.513,0.681-1.513,1.514v1.418c0,0.831,0.681,1.512,1.513,1.512h52.369
		c0.832,0,1.512-0.681,1.512-1.512v-1.418C77.697,73.171,77.018,72.49,76.186,72.49z"/>
	<path fill="#FFFFFF" d="M50,0C22.431,0,0,22.43,0,50s22.43,50,50,50s50-22.43,50-50S77.57,0,50,0z M50,99.01
		c-27.024,0-49.01-21.986-49.01-49.01S22.976,0.99,50,0.99C77.025,0.99,99.01,22.977,99.01,50S77.025,99.01,50,99.01z"/>
</g>
</svg>
