<?xml version="1.0" encoding="utf-8"?>
<!-- Generator: Adobe Illustrator 16.0.0, SVG Export Plug-In . SVG Version: 6.00 Build 0)  -->
<!DOCTYPE svg PUBLIC "-//W3C//DTD SVG 1.1//EN" "http://www.w3.org/Graphics/SVG/1.1/DTD/svg11.dtd">
<svg version="1.1" id="Layer_1" xmlns="http://www.w3.org/2000/svg" xmlns:xlink="http://www.w3.org/1999/xlink" x="0px" y="0px"
	 width="122.002px" height="41.103px" viewBox="0 0 122.002 41.103" enable-background="new 0 0 122.002 41.103"
	 xml:space="preserve">
<path fill="#FFFFFF" d="M92.299,2.274v8.684c0,0.469-0.393,0.861-0.862,0.861c-0.287,0-0.558-0.151-0.709-0.378l-4.456-6.434v5.951
	c0,0.469-0.393,0.861-0.859,0.861c-0.47,0-0.862-0.392-0.862-0.861V2.274c0-0.469,0.392-0.861,0.862-0.861
	c0.301,0,0.543,0.137,0.694,0.364l4.469,6.478V2.274c0-0.469,0.394-0.861,0.861-0.861C91.906,1.414,92.299,1.806,92.299,2.274"/>
<path fill="#FFFFFF" d="M96.307,8.376V2.291c0-0.483,0.392-0.877,0.876-0.877c0.484,0,0.876,0.394,0.876,0.877v6.086
	c0,0.923,0.347,1.995,2.053,1.995c1.707,0,2.055-1.072,2.055-1.995V2.291c0-0.483,0.392-0.877,0.876-0.877
	c0.482,0,0.875,0.394,0.875,0.877v6.086c0,1.722-0.754,3.536-3.806,3.536C97.061,11.913,96.307,10.099,96.307,8.376"/>
<path fill="#FFFFFF" d="M84.735,24.207c0-0.973,0.518-1.447,1.423-1.447c0.909,0,1.405,0.474,1.405,1.447
	c0,0.95-0.496,1.406-1.405,1.406C85.253,25.612,84.735,25.156,84.735,24.207"/>
<path fill="#FFFFFF" d="M94.473,19.547h2.855c0.422,0,0.768,0.348,0.768,0.77c0,0.425-0.346,0.771-0.768,0.771h-2.855v2.779h4.002
	c0.438,0,0.785,0.348,0.785,0.784c0,0.439-0.347,0.787-0.785,0.787h-4.878c-0.483,0-0.877-0.393-0.877-0.877v-8.413
	c0-0.483,0.394-0.875,0.877-0.875h4.712c0.439,0,0.786,0.346,0.786,0.787c0,0.436-0.347,0.784-0.786,0.784h-3.836V19.547z"/>
<path fill="#FFFFFF" d="M105.806,15.273c3.006,0,4.909,1.36,4.909,5.09s-1.903,5.075-4.909,5.075h-2.039
	c-0.483,0-0.877-0.393-0.877-0.877v-8.413c0-0.483,0.394-0.875,0.877-0.875H105.806z M104.643,23.868h1.163
	c1.934,0,3.097-0.875,3.097-3.504c0-2.628-1.163-3.519-3.097-3.519h-1.163V23.868z"/>
<path fill="#FFFFFF" d="M114.391,22.116v-6.088c0-0.482,0.392-0.875,0.876-0.875c0.483,0,0.876,0.393,0.876,0.875v6.088
	c0,0.921,0.347,1.993,2.053,1.993c1.707,0,2.055-1.072,2.055-1.993v-6.088c0-0.482,0.392-0.875,0.876-0.875
	c0.482,0,0.875,0.393,0.875,0.875v6.088c0,1.72-0.754,3.534-3.806,3.534C115.145,25.65,114.391,23.836,114.391,22.116"/>
<path fill="#FFFFFF" d="M84.735,37.944c0-0.973,0.518-1.448,1.423-1.448c0.909,0,1.405,0.475,1.405,1.448
	c0,0.948-0.496,1.404-1.405,1.404C85.253,39.348,84.735,38.892,84.735,37.944"/>
<path fill="#FFFFFF" d="M94.473,35.218v3.202c0,0.482-0.393,0.875-0.876,0.875s-0.877-0.393-0.877-0.875v-8.536
	c0-0.481,0.394-0.873,0.877-0.873h2.884c1.769,0,3.172,0.982,3.172,3.094c0,2.085-1.375,3.113-3.172,3.113H94.473z M94.473,30.58
	v3.067h1.872c0.938,0,1.496-0.561,1.496-1.542c0-0.996-0.573-1.525-1.496-1.525H94.473z"/>
<path fill="#FFFFFF" d="M108.661,37.542c0.498,0,0.845,0.362,0.845,0.816c0,0.467-0.347,0.815-0.845,0.815h-4.471
	c-0.498,0-0.86-0.362-0.86-0.847v-8.563c0-0.483,0.392-0.875,0.876-0.875c0.484,0,0.876,0.392,0.876,0.875v7.779H108.661z"/>
<rect x="54.795" y="0.001" fill="#79CAE2" width="13.698" height="27.399"/>
<rect y="13.703" fill="#98CA95" width="13.698" height="27.4"/>
<rect x="27.4" y="13.703" fill="#00A3BF" width="13.694" height="13.7"/>
<rect x="54.795" y="13.703" fill="#39A9DC" width="13.698" height="13.7"/>
<rect y="13.703" fill="#38A962" width="13.698" height="13.7"/>
<rect x="13.699" y="0.005" fill="#00A096" width="13.697" height="13.698"/>
<rect x="41.096" y="27.403" fill="#008AA4" width="13.7" height="13.7"/>
</svg>
