<?xml version="1.0" encoding="utf-8"?>
<!-- Generator: Adobe Illustrator 16.0.0, SVG Export Plug-In . SVG Version: 6.00 Build 0)  -->
<!DOCTYPE svg PUBLIC "-//W3C//DTD SVG 1.1//EN" "http://www.w3.org/Graphics/SVG/1.1/DTD/svg11.dtd">
<svg version="1.1" id="Layer_1" xmlns="http://www.w3.org/2000/svg" xmlns:xlink="http://www.w3.org/1999/xlink" x="0px" y="0px"
	 width="100px" height="100px" viewBox="0 0 100 100" enable-background="new 0 0 100 100" xml:space="preserve">
<g>
	<path fill="#0089A3" d="M49.75,99.667c-27.524,0-49.917-22.393-49.917-49.916c0-27.525,22.393-49.918,49.917-49.918
		c27.524,0,49.917,22.393,49.917,49.918C99.667,77.274,77.274,99.667,49.75,99.667z M49.75,0.821
		c-26.978,0-48.928,21.95-48.928,48.93c0,26.979,21.95,48.927,48.928,48.927c26.979,0,48.928-21.948,48.928-48.927
		C98.678,22.771,76.729,0.821,49.75,0.821z"/>
</g>
<path fill="#0089A3" d="M78.76,29.92c-0.02-0.021-0.047-0.03-0.07-0.045c-0.014-0.016-0.021-0.035-0.033-0.048
	c-0.608-0.547-1.382-0.848-2.18-0.848H23.021c-0.797,0-1.57,0.301-2.179,0.848c-0.01,0.009-0.013,0.021-0.022,0.031
	c-0.032,0.021-0.067,0.038-0.095,0.066c-0.623,0.623-0.965,1.446-0.965,2.316v35.02c0,0.829,0.311,1.617,0.875,2.218
	c0.026,0.026,0.059,0.042,0.088,0.061c0.02,0.029,0.033,0.062,0.058,0.087c0.605,0.58,1.4,0.898,2.241,0.898h53.455
	c0.841,0,1.637-0.318,2.241-0.898c0.025-0.025,0.039-0.058,0.057-0.087c0.03-0.019,0.064-0.034,0.089-0.061
	c0.565-0.601,0.875-1.389,0.875-2.218V32.24C79.738,31.363,79.391,30.539,78.76,29.92z M78.751,32.24v35.02
	c0,0.384-0.095,0.753-0.274,1.08L61.139,47.705l17.237-16.707C78.62,31.364,78.751,31.792,78.751,32.24z M20.749,32.24
	c0-0.444,0.128-0.87,0.367-1.238L38.36,47.705L21.021,68.34c-0.179-0.327-0.273-0.696-0.273-1.08V32.24z M23.021,29.967h53.455
	c0.354,0,0.702,0.086,1.017,0.249l-27.744,21.67l-27.745-21.67C22.32,30.053,22.668,29.967,23.021,29.967z M76.477,69.534H23.021
	c-0.398,0-0.78-0.103-1.116-0.294L42.23,51.455l7.176,6.949c0.191,0.185,0.496,0.185,0.687,0l7.176-6.949L77.593,69.24
	C77.257,69.432,76.875,69.534,76.477,69.534z"/>
</svg>
