<?xml version="1.0" encoding="utf-8"?>
<!-- Generator: Adobe Illustrator 16.0.0, SVG Export Plug-In . SVG Version: 6.00 Build 0)  -->
<!DOCTYPE svg PUBLIC "-//W3C//DTD SVG 1.1//EN" "http://www.w3.org/Graphics/SVG/1.1/DTD/svg11.dtd">
<svg version="1.1" id="Layer_3" xmlns="http://www.w3.org/2000/svg" xmlns:xlink="http://www.w3.org/1999/xlink" x="0px" y="0px"
	 width="100px" height="100px" viewBox="0 0 100 100" enable-background="new 0 0 100 100" xml:space="preserve">
<g>
	<path fill-rule="evenodd" clip-rule="evenodd" fill="#FFFFFF" d="M49.999,0C22.43,0,0,22.43,0,49.999
		C0,77.569,22.43,100,49.999,100C77.569,100,100,77.569,100,49.999C100,22.43,77.569,0,49.999,0z M49.999,99.005
		c-27.021,0-49.005-21.984-49.005-49.006S22.978,0.994,49.999,0.994s49.006,21.983,49.006,49.005S77.021,99.005,49.999,99.005z"/>
	<path fill-rule="evenodd" clip-rule="evenodd" fill="#FFFFFF" d="M75.115,58.414h-3.714h-4.454H49.125V48.019
		c0-4.923,3.99-8.911,8.911-8.911c4.922,0,8.911,3.988,8.911,8.911c0,1.229,0.997,2.228,2.227,2.228
		c1.231,0,2.228-0.998,2.228-2.228c0-7.382-5.983-13.366-13.365-13.366S44.67,40.637,44.67,48.019v10.396h-3.713
		c-1.23,0-2.228,0.998-2.228,2.227v19.307c0,1.231,0.997,2.228,2.228,2.228h34.158c1.229,0,2.227-0.996,2.227-2.228V60.641
		C77.342,59.412,76.345,58.414,75.115,58.414z M60.264,71.162v4.33c0,1.23-0.997,2.228-2.228,2.228s-2.228-0.997-2.228-2.228v-4.33
		c-1.326-0.772-2.228-2.192-2.228-3.838c0-2.46,1.993-4.456,4.455-4.456c2.461,0,4.456,1.996,4.456,4.456
		C62.492,68.97,61.59,70.39,60.264,71.162z"/>
	<path fill-rule="evenodd" clip-rule="evenodd" fill="#FFFFFF" d="M60.274,50.555c-3.754-1.867-2.309-0.439-6.916-2.35
		c-0.75-0.311-1.397-0.584-1.973-0.829c-0.021,0.211-0.033,0.426-0.033,0.643v8.168H65.11
		C64.283,54.058,62.831,51.826,60.274,50.555z"/>
	<path fill-rule="evenodd" clip-rule="evenodd" fill="#FFFFFF" d="M42.442,56.187v-8.168c0-6.203,3.649-11.557,8.907-14.066
		c0.016-0.129,0.027-0.253,0.034-0.371c0.063-0.973,0.636-4.003-0.682-3.732c0.27-2.022,0.481-3.851,0.385-4.818
		c-0.328-3.399-2.679-6.948-8.609-7.207c-5.041,0.26-8.314,3.81-8.646,7.209c-0.096,0.969,0.099,2.796,0.369,4.821
		c-1.317-0.273-0.75,2.761-0.693,3.732c0.063,1.006,0.42,2.586,1.501,2.273c0.536,4.14,2.262,5.459,2.262,5.459l-0.043,4.398
		c0,0-1.093,0.666-5.7,2.575c-4.607,1.911-3.162,0.395-6.916,2.263c-5.932,2.95-5.932,11.069-5.932,11.069h0.003
		c0,0.001-0.002,0.003-0.002,0.005c0,1.23,0.998,2.228,2.229,2.228h15.593v-3.216c0-2.456,1.998-4.454,4.455-4.454H42.442z"/>
</g>
</svg>
