<?xml version="1.0" encoding="utf-8"?>
<!-- Generator: Adobe Illustrator 16.0.0, SVG Export Plug-In . SVG Version: 6.00 Build 0)  -->
<!DOCTYPE svg PUBLIC "-//W3C//DTD SVG 1.1//EN" "http://www.w3.org/Graphics/SVG/1.1/DTD/svg11.dtd">
<svg version="1.1" id="Layer_3" xmlns="http://www.w3.org/2000/svg" xmlns:xlink="http://www.w3.org/1999/xlink" x="0px" y="0px"
	 width="100px" height="100px" viewBox="0 0 100 100" enable-background="new 0 0 100 100" xml:space="preserve">
<path fill-rule="evenodd" clip-rule="evenodd" fill="#FFFFFF" d="M50,0C22.431,0,0,22.429,0,50c0,27.57,22.431,50,50,50
	c27.571,0,50-22.43,50-50C100,22.429,77.571,0,50,0z M0.99,50C0.99,22.977,22.978,0.99,50,0.99c27.024,0,49.01,21.986,49.01,49.01
	c0,12.889-5.008,24.624-13.173,33.382c-1.429-2.194-3.396-4.2-6.115-5.553c-6.257-3.112-3.848-0.73-11.526-3.916
	c-7.682-3.181-9.499-4.22-9.499-4.22l-0.067-7.294c0,0,2.875-2.183,3.773-9.08c1.795,0.519,2.402-2.105,2.499-3.782
	c0.107-1.62,1.062-6.67-1.135-6.22c0.45-3.371,0.803-6.42,0.642-8.033c-0.549-5.664-4.465-11.579-14.349-12.01
	c-8.403,0.432-13.859,6.35-14.41,12.015c-0.158,1.613,0.164,4.658,0.613,8.036c-2.195-0.456-1.249,4.602-1.153,6.222
	c0.104,1.677,0.7,4.31,2.501,3.789c0.894,6.898,3.769,9.1,3.769,9.1l-0.071,7.331c0,0-1.819,1.109-9.5,4.29
	c-7.68,3.186-5.271,0.659-11.528,3.771c-2.719,1.354-4.687,3.36-6.114,5.555c0.551,0.592,1.116,1.169,1.697,1.732
	C6.698,76.205,0.99,63.759,0.99,50z M84.054,85.197c-0.551,0.533-1.113,1.054-1.689,1.562C82.94,86.251,83.503,85.73,84.054,85.197z
	 M82.198,86.901c-0.551,0.482-1.112,0.952-1.685,1.41C81.086,87.854,81.647,87.384,82.198,86.901z M80.267,88.505
	c-0.549,0.432-1.107,0.854-1.676,1.264C79.159,89.358,79.718,88.937,80.267,88.505z M78.263,90.002
	c-0.546,0.387-1.1,0.764-1.661,1.128C77.162,90.766,77.717,90.389,78.263,90.002z M76.192,91.392
	c-0.542,0.345-1.09,0.678-1.646,1.001C75.103,92.069,75.65,91.736,76.192,91.392z M74.059,92.673
	c-0.537,0.305-1.079,0.597-1.63,0.881C72.979,93.27,73.522,92.978,74.059,92.673z M71.863,93.844
	c-0.529,0.265-1.065,0.52-1.606,0.766C70.798,94.363,71.334,94.108,71.863,93.844z M69.613,94.9c-0.525,0.23-1.055,0.448-1.588,0.66
	C68.559,95.349,69.09,95.131,69.613,94.9z M67.312,95.843c-0.519,0.196-1.043,0.38-1.57,0.559
	C66.268,96.222,66.793,96.039,67.312,95.843z M64.959,96.666c-0.515,0.165-1.035,0.317-1.557,0.465
	C63.924,96.982,64.444,96.832,64.959,96.666z M62.562,97.37c-0.514,0.137-1.033,0.257-1.554,0.377
	C61.529,97.627,62.049,97.507,62.562,97.37z M60.123,97.952c-0.518,0.109-1.041,0.201-1.564,0.294
	C59.082,98.153,59.606,98.062,60.123,97.952z M41.443,98.246c-0.523-0.093-1.047-0.185-1.564-0.294
	C40.396,98.062,40.92,98.153,41.443,98.246z M38.993,97.747c-0.521-0.12-1.041-0.24-1.555-0.377
	C37.952,97.507,38.473,97.627,38.993,97.747z M36.601,97.132c-0.521-0.148-1.043-0.301-1.559-0.466
	C35.558,96.832,36.079,96.983,36.601,97.132z M34.26,96.401c-0.525-0.179-1.05-0.362-1.568-0.559
	C33.21,96.04,33.734,96.223,34.26,96.401z M31.976,95.56c-0.534-0.211-1.063-0.43-1.588-0.659
	C30.912,95.131,31.441,95.348,31.976,95.56z M29.745,94.609c-0.54-0.246-1.077-0.5-1.606-0.766
	C28.668,94.109,29.205,94.363,29.745,94.609z M27.57,93.553c-0.549-0.283-1.091-0.576-1.627-0.879
	C26.479,92.978,27.022,93.269,27.57,93.553z M25.454,92.392c-0.555-0.322-1.103-0.655-1.644-0.999
	C24.352,91.736,24.899,92.068,25.454,92.392z M23.398,91.129c-0.561-0.363-1.113-0.74-1.659-1.127
	C22.285,90.389,22.838,90.765,23.398,91.129z M21.411,89.769c-0.569-0.41-1.128-0.833-1.677-1.266
	C20.283,88.937,20.843,89.358,21.411,89.769z M19.488,88.312c-0.572-0.458-1.134-0.929-1.686-1.41
	C18.354,87.383,18.916,87.854,19.488,88.312z M17.638,86.759c-0.577-0.509-1.141-1.031-1.693-1.565
	C16.497,85.728,17.062,86.25,17.638,86.759z M47.421,98.941c0.855,0.044,1.715,0.068,2.579,0.068c0.866,0,1.726-0.024,2.581-0.068
	C51.726,98.985,50.866,99.01,50,99.01C49.136,99.01,48.276,98.985,47.421,98.941z M42.357,98.409
	c0.533,0.084,1.071,0.149,1.609,0.215C43.429,98.559,42.891,98.493,42.357,98.409z M44.873,98.74c0.581,0.061,1.167,0.1,1.754,0.14
	C46.04,98.84,45.454,98.801,44.873,98.74z M57.645,98.409c-0.534,0.084-1.071,0.149-1.609,0.215
	C56.573,98.559,57.11,98.493,57.645,98.409z M55.129,98.74c-0.58,0.061-1.168,0.1-1.754,0.14
	C53.961,98.84,54.549,98.801,55.129,98.74z M84.141,85.113c0.578-0.562,1.144-1.137,1.692-1.727
	C85.284,83.977,84.719,84.552,84.141,85.113z"/>
</svg>
