<?xml version="1.0" encoding="utf-8"?>
<!-- Generator: Adobe Illustrator 16.0.0, SVG Export Plug-In . SVG Version: 6.00 Build 0)  -->
<!DOCTYPE svg PUBLIC "-//W3C//DTD SVG 1.1//EN" "http://www.w3.org/Graphics/SVG/1.1/DTD/svg11.dtd">
<svg version="1.1" id="Layer_1" xmlns="http://www.w3.org/2000/svg" xmlns:xlink="http://www.w3.org/1999/xlink" x="0px" y="0px"
	 width="100px" height="100px" viewBox="0 0 100 100" enable-background="new 0 0 100 100" xml:space="preserve">
<g>
	<path fill="#0089A3" d="M50,0C22.425,0,0,22.436,0,50c0,27.574,22.426,50,50,50c27.575,0,50-22.426,50-50C100,22.436,77.574,0,50,0
		z M50,99.01c-27.02,0-49.01-21.98-49.01-49.01C0.99,22.98,22.979,0.99,50,0.99S99.01,22.98,99.01,50
		C99.01,77.029,77.02,99.01,50,99.01z"/>
	<path fill="#0089A3" d="M49.663,21.089c-2.376,0-4.683,0.427-6.862,1.277c-3.158,1.228-5.852,3.258-7.772,5.882
		C33.049,30.95,32,34.1,32,37.376c0,1.308,1.148,2.377,2.545,2.377c1.406,0,2.554-1.069,2.554-2.377c0-1.564,0.327-3.068,0.98-4.485
		c0.941-2.06,2.515-3.812,4.535-5.069c2.089-1.287,4.525-1.97,7.05-1.97c1.405,0,2.544-1.069,2.544-2.386
		C52.207,22.158,51.068,21.089,49.663,21.089z"/>
	<path fill="#0089A3" d="M58.416,71.693c-0.14,0-0.287,0.01-0.436,0.03l-16.09,2.128c-0.812,0.109-1.525,0.495-2.01,1.099
		c-0.495,0.614-0.713,1.376-0.594,2.14c0.228,1.396,1.525,2.445,3.03,2.445c0.148,0,0.297-0.01,0.436-0.03l16.09-2.139
		c0.831-0.108,1.594-0.535,2.078-1.188c0.445-0.595,0.634-1.327,0.516-2.04C61.227,72.742,59.92,71.693,58.416,71.693z
		 M60.129,75.584c-0.328,0.437-0.842,0.733-1.416,0.803l-16.1,2.138c-1.119,0.158-2.188-0.584-2.347-1.584
		c-0.069-0.485,0.06-0.97,0.386-1.366c0.327-0.406,0.812-0.663,1.366-0.742l16.08-2.129c0.099-0.01,0.208-0.02,0.317-0.02
		c1.02,0,1.9,0.693,2.039,1.604C60.534,74.743,60.416,75.208,60.129,75.584z"/>
	<path fill="#0089A3" d="M56.406,79.089l-12.159,1.604c-0.842,0.118-1.604,0.554-2.089,1.197c-0.446,0.604-0.624,1.327-0.515,2.05
		c0.218,1.386,1.515,2.436,3.02,2.436c0.149,0,0.297-0.009,0.436-0.029l12.168-1.604c0.812-0.119,1.524-0.505,2-1.099
		c0.505-0.613,0.714-1.376,0.595-2.148C59.613,79.98,58.068,78.871,56.406,79.089z M58.504,83.01
		c-0.326,0.406-0.812,0.674-1.365,0.752L44.96,85.366c-1.119,0.168-2.178-0.584-2.337-1.584c-0.069-0.455,0.05-0.911,0.337-1.298
		c0.317-0.435,0.842-0.731,1.416-0.801l12.159-1.614c0.099-0.01,0.198-0.021,0.308-0.021c1.02,0,1.891,0.693,2.039,1.604
		C58.959,82.139,58.821,82.624,58.504,83.01z"/>
	<path fill="#0089A3" d="M67.139,21.96C62.564,17.742,56.475,15.426,50,15.426c-6.465,0-12.555,2.316-17.128,6.534
		c-4.594,4.219-7.119,9.842-7.119,15.832c0.02,2.594,0.732,5.426,2.237,8.901c0.812,1.892,1.881,4,3.356,6.623
		c0.792,1.396,1.604,2.763,2.386,4.1l0.169,0.277c0.96,1.634,1.871,3.168,2.633,4.604c0.782,1.436,1.336,2.595,1.693,3.545
		c0.367,0.96,0.574,1.791,0.565,2.347v2.505l0.029,0.168c0.168,1.04,1.139,1.822,2.258,1.822c0.099,0,0.208-0.01,0.326-0.021
		l17.832-2.366l0.376-0.079c0.039-0.01,0.079-0.03,0.1-0.04l0.326-0.128c0.04-0.03,0.08-0.05,0.119-0.07l0.078-0.049
		c0.031-0.02,0.07-0.05,0.109-0.079l0.496-0.515l0.059-0.089c0.029-0.04,0.05-0.079,0.06-0.109l0.099-0.208
		c0.03-0.06,0.05-0.109,0.08-0.198c0.01-0.039,0.02-0.079,0.02-0.109l0.01-0.038c0.01-0.061,0.02-0.109,0.02-0.149l0.029-0.268
		c-0.01-0.475,0.148-1.188,0.436-2c0.477-1.336,1.377-3.147,2.832-5.702c0.564-0.98,1.158-2.001,1.793-3.07l0.089-0.147
		c1.476-2.506,3.011-5.109,4.347-7.763c1.09-2.169,1.9-4.079,2.484-5.862c0.703-2.158,1.051-4.078,1.061-5.851
		C74.258,31.792,71.723,26.179,67.139,21.96z M72.258,43.316c-0.574,1.733-1.367,3.604-2.426,5.724
		c-1.326,2.634-2.852,5.207-4.318,7.702l-0.088,0.148c-0.635,1.079-1.229,2.1-1.803,3.08c-1.484,2.613-2.416,4.475-2.91,5.871
		c-0.229,0.653-0.496,1.584-0.496,2.405c0,0.021,0,0.03-0.01,0.051l-0.029,0.188l-0.158,0.308c-0.02,0.019-0.03,0.039-0.03,0.039
		c-0.009,0.01-0.009,0.01-0.009,0.01l-0.377,0.307l0.208,0.455l-0.298-0.406c-0.01,0.011-0.029,0.021-0.039,0.021
		c-0.029,0.01-0.059,0.02-0.089,0.04v0.01c0,0,0,0.01-0.01,0.01l0.128,0.455l-0.227-0.416v-0.028l-0.011,0.009v-0.009l-17.97,2.396
		c-0.703,0.059-1.396-0.356-1.515-0.99v-2.505c0.01-0.861-0.337-1.94-0.624-2.693c-0.386-1-0.95-2.198-1.752-3.673
		c-0.772-1.445-1.684-2.99-2.654-4.635l-0.168-0.276c-0.782-1.327-1.584-2.693-2.376-4.079c-1.456-2.594-2.515-4.674-3.317-6.524
		c-1.445-3.357-2.128-6.07-2.148-8.525c0-5.703,2.416-11.06,6.792-15.099c4.396-4.04,10.248-6.268,16.465-6.268
		c6.227,0,12.08,2.228,16.465,6.268c4.385,4.029,6.803,9.396,6.803,15.089C73.258,39.436,72.92,41.258,72.258,43.316z"/>
</g>
</svg>
